<svg width="2000" height="368" viewBox="0 0 2000 368" xmlns="http://www.w3.org/2000/svg">
  <g fill="currentColor" transform="translate(-1.2 1)">

    <g transform="translate(8 0) scale(1.5)">
      <circle cx="55.54" cy="19.68" r="4.9"/>
      <circle cx="23.47" cy="42.6" r="4.9"/>
      <circle cx="45.74" cy="65.15" r="4.9"/>
      <circle cx="12.97" cy="82.66" r="4.9"/>
      <circle cx="81.49" cy="25.55" r="4.9"/>
      <circle cx="47.69" cy="89.1" r="4.9"/>
      <path d="M12.97 83.81c-.14 0-.29-.03-.42-.08-.1-.04-.2-.09-.28-.16-.15-.12-.27-.27-.35-.46-.02-.04-.04-.09-.05-.14L4.05 56.08c-.14-.47.04-.97.44-1.26l51.2-36.38c.46-.32 1.08-.27 1.48.12s.45 1.01.14 1.47L16.58 79.43l28.61-15.3c.17-.09.35-.13.54-.13h46.61L80.49 26.36 58.65 7.02c-.47-.42-.52-1.15-.1-1.62s1.15-.52 1.62-.1l22.08 19.54c.15.14.27.32.33.52l12.42 39.43c.11.35.05.73-.17 1.03-.22.29-.56.47-.93.47H46.02L13.53 83.66c-.05.03-.1.05-.16.08-.07.02-.14.04-.21.05-.07.02-.13.02-.2.02zM6.48 56.22l6.91 23.79 38.36-55.95L6.48 56.22zM45.74 66.3c-.08 0-.15-.01-.23-.02l-.05-.01c-.21-.06-.4-.17-.54-.31L10.72 31.75 6.28 55.96c-.11.63-.71 1.04-1.34.93-.62-.11-1.04-.71-.92-1.34l4.83-26.37c.07-.42.38-.76.79-.89.4-.13.85-.02 1.15.28l34.29 34.29 9.9-42.65-28.5-7.18c-.52-.13-.88-.61-.86-1.16s.41-1 .95-1.09l32.65-5.75c.38-.07.77.06 1.03.34.27.28.37.67.29 1.05l-2.81 12.11 24.05 6.06c.39.1.7.4.82.78.11.39.02.81-.25 1.11L46.6 65.9c-.06.08-.14.14-.23.2l-.08.04C46.15 66.24 45.94 66.3 45.74 66.3zM57.21 20.77l-9.35 40.32 31.5-34.74-22.15-5.58zM32.26 12.11l23.24 5.86 2.4-10.37-25.64-4.52zM47.69 90.25c-.07 0-.14-.01-.21-.02L12.76 83.8c-.62-.11-1.04-.71-.92-1.34s.71-1.04 1.34-.92l33.24 6.16-1.82-22.3-18.92-53.1c-.21-.6.1-1.26.7-1.47s1.25.1 1.47.7l24.6 69.23c.03.1.05.19.06.29l1.96 23.96c.03.35-.11.7-.38.94-.21.19-.49.3-.77.3zM47.69 90.25c-.18 0-.37-.04-.54-.13-.56-.3-..77-1-.47-1.56l33.8-63.39c.3-.56 1-.77 1.56-.47s.77 1 .47 1.56L48.7 89.64c-.21.39-.6.61-1.01.61z"/>
    </g>

    <rect width="4.19" height="59.26" x="129.53" y="20.49" rx="1%"/>

    <g transform="translate(144.67 20.63) scale(5)">
      <path d="M0.75-26.05L4.55-26.05 12.2-15.85 12.6-15.1 13-15.85 20.6-26.05 24.45-26.05 14.55-12.95 24.45 0 20.6 0 13-10.15 12.6-10.85 12.2-10.15 4.6 0 0.75 0 10.6-12.95 0.75-26.05ZM40.2 0.5Q37.4 0.5 35-0.58 32.6-1.65 30.85-3.53 29.1-5.4 28.12-7.85 27.15-10.3 27.15-13.1q0-3.65 1.67-6.7 1.68-3.05 4.63-4.88 2.95-1.83 6.7-1.83 3.85 0 6.72 1.85 2.88 1.85 4.55 4.87 1.65 3.03 1.65 6.4 0 1.15-.1 1.35L30.7-11.8q.25 2.8 1.57 5 1.33 2.15 3.45 3.42 2.13 1.28 4.63 1.28 2.55 0 4.82-1.3 2.28-1.3 3.18-3.4l2.95.8q-.8 1.85-2.45 3.35-1.65 1.5-3.88 2.32-2.22.83-4.72.83ZM30.6-14.25l19.25 0q-.2-2.85-1.53-5-1.32-2.15-3.45-3.38-2.12-1.23-4.65-1.23-2.55 0-4.65 1.22-2.1 1.23-3.43 3.4-1.32 2.18-1.52 5ZM69.9-4l.9-2.75q-.4.15-1.25.55t-1.65.65q-1.2.3-2.6.3-1.45 0-2.73-.55-1.27-.55-2.02-1.68-.75-1.12-.75-2.8v-17.75h-3.6v-2.7h3.6v-8.8h3.4v8.8h6v2.7h-6v17.7q.1 1.4 1.02 2.1.93.7 2.13.7 1.39 0 2.55-.47 1.15-.48 1.4-1.15ZM91.5 0h-3.5V-35.5h3.5V0ZM121.6-15.25V0h-3.41V-14.55q0-4.6-1.34-6.73-1.35-2.13-4.25-2.13-2 0-3.96.97-1.95.98-3.42 2.65-1.47 1.67-2.07 3.82V0h-3.41v-26.05h3.11v5.9q1.05-1.9 2.75-3.33 1.7-1.42 3.84-2.22 2.16-.8 4.46-.8 2.15 0 3.65.8 1.5 8 2.39 2.27.9 1.48 1.29 3.55.4 2.05.4 4.6ZM127.09-12.95q0-3.7 1.53-6.78 1.52-3.08 4.22-4.93 2.7-1.85 6.15-1.85 3.25 0 5.83 1.72 2.57 1.73 4.02 4.15V-36.5h3.4v32.4q0 .7.3.93.3.22.9.25v2.7q-1-.15-1.55-.18-1.05-.05-1.85.7-.8.75-.8 1.75v2.55q-1.55-2.55-4.2-4.05-2.65-1.5-5.5-1.5-2.7 0-5 .9-2.28.9-3.95 2.8-1.68 1.9-2.6 4.33-.93 2.42-.93 5.02Zm21.75 4V-17q-.65-1.8-2.1-3.28-1.45-1.47-3.27-2.35-1.83-.88-3.63-.88-2.1 0-3.8.87-1.7.88-2.92 2.38-1.23 1.5-1.88 3.4-.65 1.9-.65 3.9 0 2.1.73 4 1.74 3.47 5.19 3.47 1.3 0 2.7-.5t2.98-1.78q2.4-2.2 2.6-5.2ZM159.69-10.75v-15.3h3.4v14.75q0 4.45 1.53 6.65 1.52 2.2 4.52 2.2 2 0 3.88-.87 1.87-.88 3.32-2.5 1.45-1.63 2.2-3.78V-26.05h3.4v21.95q0 .7.3.92.3.23.9.25v2.7q-.6-.05-1-.08-.34-.02-.64-.02-1 0-1.72.7-.73.7-1.18 1.7l-.1 3.5q-1.7-3-4.62-4.7-2.93-1.7-6.33-1.7-4.1 0-6.2 2.85-2.1 2.85-2.1 8.35ZM198.19.5q-3.2 0-5.95-1.05-2.75-1.05-4.75-3.2l1.4-2.4q2.2 2 4.42 2.92 2.23.93 4.73.93 3.05 0 4.95-1.23 1.9-1.22 1.9-3.45 0-1.65-.93-2.48-.92-.83-2.65-1.35-1.73-.52-4.13-1.12-2.7-.6-4.53-1.43-1.82-.82-2.75-2.1-..92-1.28-.92-3.33 0-2.6 1.27-4.28 1.28-1.67 3.5-2.55 2.23-.88 4.98-.88 3 0 5.3 1 2.3.95 3.75 2.65l-1.65 2.3q-1.4-1.6-3.33-2.38-1.92-.78-4.27-.78-1.6 0-3.05.42-1.45.43-2.38 1.4-.93.98-.93 2.7 0 1.4.7 2.17.7.78 2.1 1.3 1.4.53 3.45 1.13 2.95.8 5.15 1.62 2.2 82 3.4 2.13 1.2 2.12 3.55 0 3.65-2.75 5.7-2.75 2.05-7.25 2.05ZM225.39-4l.9-2.75q-.4.15-1.25.55t-1.65.65q-1.2.3-2.6.3-1.45 0-2.73-.55-1.27-.55-2.02-1.68-.75-1.12-.75-2.8v-17.75h-3.6v-2.7h3.6v-8.8h3.4v8.8h6v2.7h-6v17.7q.1 1.4 1.02 2.1.93.7 2.13.7 1.39 0 2.55-.47 1.15-.48 1.4-1.15ZM243.53-26.15v3.1q-3.4.1-5.97 1.9-2.58 1.8-3.63 4.95v16.2h-3.4V-26.05h3.2v6.25q1.35-2.75 3.58-4.45 2.22-1.7 4.72-1.9.5-.05.88-.05.37 0 .62.05ZM251.48 0h-3.4V-26.05h3.4V0ZM251.48-31.5h-3.4v-5h3.4v5ZM270.23.5q-2.8 0-5.2-1.08-2.4-1.07-4.15-2.95-1.75-1.88-2.73-4.32-.97-2.45-.97-5.2 0-3.65 1.67-6.7 1.68-3.05 4.63-4.88 2.95-1.83 6.7-1.83 3.85 0 6.72 1.85 2.88 1.85 4.55 4.87 1.65 3.03 1.65 6.4 0 .4-.05.82-.05.42-.1.65l-22.3 0q.25 2.8 1.57 5 1.33 2.15 3.45 3.42 2.13 1.28 4.63 1.28 2.55 0 4.82-1.3 2.28-1.3 3.18-3.4l2.95.8q-.8 1.85-2.45 3.35-1.65 1.5-3.88 2.32-2.22.83-4.72.83ZM260.63-14.25l19.25 0q-.2-2.85-1.53-5-1.32-2.15-3.45-3.38-2.12-1.23-4.65-1.23-2.55 0-4.65 1.22-2.1 1.23-3.43 3.4-1.32 2.18-1.52 5ZM296.88.5q-3.2 0-5.95-1.05-2.75-1.05-4.75-3.2l1.4-2.4q2.2 2 4.42 2.92 2.23.93 4.73.93 3.05 0 4.95-1.23 1.9-1.22 1.9-3.45 0-1.65-.93-2.48-.92-.83-2.65-1.35-1.73-.52-4.13-1.12-2.7-.6-4.53-1.43-1.82-.82-2.75-2.1-.92-1.28-.92-3.33 0-2.6 1.27-4.28 1.28-1.67 3.5-2.55 2.23-.88 4.98-.88 3 0 5.3 1 2.3.95 3.75 2.65l-1.65 2.3q-1.4-1.6-3.33-2.38-1.92-.78-4.27-.78-1.6 0-3.05.42-1.45.43-2.38 1.4-.93.98-.93 2.7 0 1.4.7 2.17.7.78 2.1 1.3 1.4.53 3.45 1.13 2.95.8 5.15 1.62 2.2.82 3.4 2.13 1.2 1.3 1.2 3.55 0 3.65-2.75 5.7-2.75 2.05-7.25 2.05Z"/>
    </g>
  </g>
</svg><svg width="2000" height="368" viewBox="0 0 2000 368" xmlns="http://www.w3.org/2000/svg">
  <g fill="currentColor" transform="translate(-1.2 1)">

    <g transform="translate(8 0) scale(1.5)">
      <circle cx="55.54" cy="19.68" r="4.9"/>
      <circle cx="23.47" cy="42.6" r="4.9"/>
      <circle cx="45.74" cy="65.15" r="4.9"/>
      <circle cx="12.97" cy="82.66" r="4.9"/>
      <circle cx="81.49" cy="25.55" r="4.9"/>
      <circle cx="47.69" cy="89.1" r="4.9"/>
      <path d="M12.97 83.81c-.14 0-.29-.03-.42-.08-.1-.04-.2-.09-.28-.16-.15-.12-.27-.27-.35-.46-.02-.04-.04-.09-.05-.14L4.05 56.08c-.14-.47.04-.97.44-1.26l51.2-36.38c.46-.32 1.08-.27 1.48.12s.45 1.01.14 1.47L16.58 79.43l28.61-15.3c.17-.09.35-.13.54-.13h46.61L80.49 26.36 58.65 7.02c-.47-.42-.52-1.15-.1-1.62s1.15-.52 1.62-.1l22.08 19.54c.15.14.27.32.33.52l12.42 39.43c.11.35.05.73-.17 1.03-.22.29-.56.47-.93.47H46.02L13.53 83.66c-.05.03-.1.05-.16.08-.07.02-.14.04-.21.05-.07.02-.13.02-.2.02zM6.48 56.22l6.91 23.79 38.36-55.95L6.48 56.22zM45.74 66.3c-.08 0-.15-.01-.23-.02l-.05-.01c-.21-.06-.4-.17-.54-.31L10.72 31.75 6.28 55.96c-.11.63-.71 1.04-1.34.93-.62-.11-1.04-.71-.92-1.34l4.83-26.37c.07-.42.38-.76.79-.89.4-.13.85-.02 1.15.28l34.29 34.29 9.9-42.65-28.5-7.18c-.52-.13-.88-.61-.86-1.16s.41-1 .95-1.09l32.65-5.75c.38-.07.77.06 1.03.34.27.28.37.67.29 1.05l-2.81 12.11 24.05 6.06c.39.1.7.4.82.78.11.39.02.81-.25 1.11L46.6 65.9c-.06.08-.14.14-.23.2l-.08.04C46.15 66.24 45.94 66.3 45.74 66.3zM57.21 20.77l-9.35 40.32 31.5-34.74-22.15-5.58zM32.26 12.11l23.24 5.86 2.4-10.37-25.64-4.52zM47.69 90.25c-.07 0-.14-.01-.21-.02L12.76 83.8c-.62-.11-1.04-.71-.92-1.34s.71-1.04 1.34-.92l33.24 6.16-1.82-22.3-18.92-53.1c-.21-.6.1-1.26.7-1.47s1.25.1 1.47.7l24.6 69.23c.03.1.05.19.06.29l1.96 23.96c.03.35-.11.7-.38.94-.21.19-.49.3-.77.3zM47.69 90.25c-.18 0-.37-.04-.54-.13-.56-.3-..77-1-.47-1.56l33.8-63.39c.3-.56 1-.77 1.56-.47s.77 1 .47 1.56L48.7 89.64c-.21.39-.6.61-1.01.61z"/>
    </g>

    <rect width="4.19" height="59.26" x="129.53" y="20.49" rx="1%"/>

    <g transform="translate(144.67 20.63) scale(5)">
      <path d="M0.75-26.05L4.55-26.05 12.2-15.85 12.6-15.1 13-15.85 20.6-26.05 24.45-26.05 14.55-12.95 24.45 0 20.6 0 13-10.15 12.6-10.85 12.2-10.15 4.6 0 0.75 0 10.6-12.95 0.75-26.05ZM40.2 0.5Q37.4 0.5 35-0.58 32.6-1.65 30.85-3.53 29.1-5.4 28.12-7.85 27.15-10.3 27.15-13.1q0-3.65 1.67-6.7 1.68-3.05 4.63-4.88 2.95-1.83 6.7-1.83 3.85 0 6.72 1.85 2.88 1.85 4.55 4.87 1.65 3.03 1.65 6.4 0 1.15-.1 1.35L30.7-11.8q.25 2.8 1.57 5 1.33 2.15 3.45 3.42 2.13 1.28 4.63 1.28 2.55 0 4.82-1.3 2.28-1.3 3.18-3.4l2.95.8q-.8 1.85-2.45 3.35-1.65 1.5-3.88 2.32-2.22.83-4.72.83ZM30.6-14.25l19.25 0q-.2-2.85-1.53-5-1.32-2.15-3.45-3.38-2.12-1.23-4.65-1.23-2.55 0-4.65 1.22-2.1 1.23-3.43 3.4-1.32 2.18-1.52 5ZM69.9-4l.9-2.75q-.4.15-1.25.55t-1.65.65q-1.2.3-2.6.3-1.45 0-2.73-.55-1.27-.55-2.02-1.68-.75-1.12-.75-2.8v-17.75h-3.6v-2.7h3.6v-8.8h3.4v8.8h6v2.7h-6v17.7q.1 1.4 1.02 2.1.93.7 2.13.7 1.39 0 2.55-.47 1.15-.48 1.4-1.15ZM91.5 0h-3.5V-35.5h3.5V0ZM121.6-15.25V0h-3.41V-14.55q0-4.6-1.34-6.73-1.35-2.13-4.25-2.13-2 0-3.96.97-1.95.98-3.42 2.65-1.47 1.67-2.07 3.82V0h-3.41v-26.05h3.11v5.9q1.05-1.9 2.75-3.33 1.7-1.42 3.84-2.22 2.16-.8 4.46-.8 2.15 0 3.65.8 1.5 8 2.39 2.27.9 1.48 1.29 3.55.4 2.05.4 4.6ZM127.09-12.95q0-3.7 1.53-6.78 1.52-3.08 4.22-4.93 2.7-1.85 6.15-1.85 3.25 0 5.83 1.72 2.57 1.73 4.02 4.15V-36.5h3.4v32.4q0 .7.3.93.3.22.9.25v2.7q-1-.15-1.55-.18-1.05-.05-1.85.7-.8.75-.8 1.75v2.55q-1.55-2.55-4.2-4.05-2.65-1.5-5.5-1.5-2.7 0-5 .9-2.28.9-3.95 2.8-1.68 1.9-2.6 4.33-.93 2.42-.93 5.02Zm21.75 4V-17q-.65-1.8-2.1-3.28-1.45-1.47-3.27-2.35-1.83-.88-3.63-.88-2.1 0-3.8.87-1.7.88-2.92 2.38-1.23 1.5-1.88 3.4-.65 1.9-.65 3.9 0 2.1.73 4 1.74 3.47 5.19 3.47 1.3 0 2.7-.5t2.98-1.78q2.4-2.2 2.6-5.2ZM159.69-10.75v-15.3h3.4v14.75q0 4.45 1.53 6.65 1.52 2.2 4.52 2.2 2 0 3.88-.87 1.87-.88 3.32-2.5 1.45-1.63 2.2-3.78V-26.05h3.4v21.95q0 .7.3.92.3.23.9.25v2.7q-.6-.05-1-.08-.34-.02-.64-.02-1 0-1.72.7-.73.7-1.18 1.7l-.1 3.5q-1.7-3-4.62-4.7-2.93-1.7-6.33-1.7-4.1 0-6.2 2.85-2.1 2.85-2.1 8.35ZM198.19.5q-3.2 0-5.95-1.05-2.75-1.05-4.75-3.2l1.4-2.4q2.2 2 4.42 2.92 2.23.93 4.73.93 3.05 0 4.95-1.23 1.9-1.22 1.9-3.45 0-1.65-.93-2.48-.92-.83-2.65-1.35-1.73-.52-4.13-1.12-2.7-.6-4.53-1.43-1.82-.82-2.75-2.1-..92-1.28-.92-3.33 0-2.6 1.27-4.28 1.28-1.67 3.5-2.55 2.23-.88 4.98-.88 3 0 5.3 1 2.3.95 3.75 2.65l-1.65 2.3q-1.4-1.6-3.33-2.38-1.92-.78-4.27-.78-1.6 0-3.05.42-1.45.43-2.38 1.4-.93.98-.93 2.7 0 1.4.7 2.17.7.78 2.1 1.3 1.4.53 3.45 1.13 2.95.8 5.15 1.62 2.2 82 3.4 2.13 1.2 2.12 3.55 0 3.65-2.75 5.7-2.75 2.05-7.25 2.05ZM225.39-4l.9-2.75q-.4.15-1.25.55t-1.65.65q-1.2.3-2.6.3-1.45 0-2.73-.55-1.27-.55-2.02-1.68-.75-1.12-.75-2.8v-17.75h-3.6v-2.7h3.6v-8.8h3.4v8.8h6v2.7h-6v17.7q.1 1.4 1.02 2.1.93.7 2.13.7 1.39 0 2.55-.47 1.15-.48 1.4-1.15ZM243.53-26.15v3.1q-3.4.1-5.97 1.9-2.58 1.8-3.63 4.95v16.2h-3.4V-26.05h3.2v6.25q1.35-2.75 3.58-4.45 2.22-1.7 4.72-1.9.5-.05.88-.05.37 0 .62.05ZM251.48 0h-3.4V-26.05h3.4V0ZM251.48-31.5h-3.4v-5h3.4v5ZM270.23.5q-2.8 0-5.2-1.08-2.4-1.07-4.15-2.95-1.75-1.88-2.73-4.32-.97-2.45-.97-5.2 0-3.65 1.67-6.7 1.68-3.05 4.63-4.88 2.95-1.83 6.7-1.83 3.85 0 6.72 1.85 2.88 1.85 4.55 4.87 1.65 3.03 1.65 6.4 0 .4-.05.82-.05.42-.1.65l-22.3 0q.25 2.8 1.57 5 1.33 2.15 3.45 3.42 2.13 1.28 4.63 1.28 2.55 0 4.82-1.3 2.28-1.3 3.18-3.4l2.95.8q-.8 1.85-2.45 3.35-1.65 1.5-3.88 2.32-2.22.83-4.72.83ZM260.63-14.25l19.25 0q-.2-2.85-1.53-5-1.32-2.15-3.45-3.38-2.12-1.23-4.65-1.23-2.55 0-4.65 1.22-2.1 1.23-3.43 3.4-1.32 2.18-1.52 5ZM296.88.5q-3.2 0-5.95-1.05-2.75-1.05-4.75-3.2l1.4-2.4q2.2 2 4.42 2.92 2.23.93 4.73.93 3.05 0 4.95-1.23 1.9-1.22 1.9-3.45 0-1.65-.93-2.48-.92-.83-2.65-1.35-1.73-.52-4.13-1.12-2.7-.6-4.53-1.43-1.82-.82-2.75-2.1-.92-1.28-.92-3.33 0-2.6 1.27-4.28 1.28-1.67 3.5-2.55 2.23-.88 4.98-.88 3 0 5.3 1 2.3.95 3.75 2.65l-1.65 2.3q-1.4-1.6-3.33-2.38-1.92-.78-4.27-.78-1.6 0-3.05.42-1.45.43-2.38 1.4-.93.98-.93 2.7 0 1.4.7 2.17.7.78 2.1 1.3 1.4.53 3.45 1.13 2.95.8 5.15 1.62 2.2.82 3.4 2.13 1.2 1.3 1.2 3.55 0 3.65-2.75 5.7-2.75 2.05-7.25 2.05Z"/>
    </g>
  </g>
</svg>